<?xml version="1.0" encoding="UTF-8" standalone="no"?><!DOCTYPE svg PUBLIC "-//W3C//DTD SVG 1.1//EN" "http://www.w3.org/Graphics/SVG/1.1/DTD/svg11.dtd"><svg width="100%" height="100%" viewBox="0 0 1135 260" version="1.1" xmlns="http://www.w3.org/2000/svg" xmlns:xlink="http://www.w3.org/1999/xlink" xml:space="preserve" xmlns:serif="http://www.serif.com/" style="fill-rule:evenodd;clip-rule:evenodd;stroke-linejoin:round;stroke-miterlimit:2;"><g id="Layer2"></g><g id="Layer1"><text x="276.504px" y="137.295px" style="font-family:'FootlightMTLight', 'Footlight MT Light', serif;font-weight:300;font-size:127.566px;fill:#fff;">S<tspan x="326.64px 354.634px 453.759px 481.753px 547.089px 575.082px 642.715px 670.708px 769.833px 797.827px 873.661px 901.654px 1010.13px 1038.12px " y="137.295px 137.295px 137.295px 137.295px 137.295px 137.295px 137.295px 137.295px 137.295px 137.295px 137.295px 137.295px 137.295px 137.295px "> M K A M U W A</tspan></text><text x="283.152px" y="215.341px" style="font-family:'FranklinGothic-Book', 'Franklin Gothic Book', sans-serif;font-size:59.118px;fill:#c28f33;">S<tspan x="315.784px 362.213px 398.231px 412.56px 458.989px 493.719px 530.549px 561.25px 607.678px 654.107px 684.808px 721.89px 736.218px 762.413px 793.114px 829.944px 844.273px 889.582px 916.393px 944.211px 978.941px 1007.01px 1021.34px 1067.77px " y="215.341px 215.341px 215.341px 215.341px 215.341px 215.341px 215.341px 215.341px 215.341px 215.341px 215.341px 215.341px 215.341px 215.341px 215.341px 215.341px 215.341px 215.341px 215.341px 215.341px 215.341px 215.341px 215.341px 215.341px ">MK MUHAMMADIYAH WATULIMO</tspan></text><g id="Cafés"><circle cx="133.105" cy="134.372" r="80" style="fill:#ff8d36;"/><path d="M154.855,140.208c-2.421,5.353 -5.725,10.761 -10.234,15.497c-0,0 -29.289,-0.014 -29.334,0c-13.803,-9.49 -16.628,-43.408 -16.628,-43.408c-0.389,-3.272 1.964,-5.925 5.287,-5.925l52.016,-0c3.112,-0 5.527,2.355 5.54,5.407c7.742,0.743 13.785,6.993 13.785,14.593c0,8.1 -6.865,14.667 -15.333,14.667c-1.788,-0 -3.504,-0.293 -5.099,-0.831Zm1.544,-3.704c1.117,0.347 2.311,0.535 3.555,0.535c6.298,-0 11.333,-4.817 11.333,-10.667c0,-5.444 -4.36,-9.993 -10.041,-10.598c-0.418,4.319 -1.588,12.235 -4.847,20.73Zm-65.023,23.289c-0.786,-0.785 -0.524,-1.421 0.596,-1.421l75.964,-0c1.115,-0 1.393,0.625 0.597,1.421l-1.157,1.157c-0.786,0.786 -2.332,1.422 -3.423,1.422l-67.998,-0c-1.105,-0 -2.626,-0.625 -3.422,-1.422l-1.157,-1.157Z" style="fill:#fff;"/></g></g></svg>